<svg xmlns="http://www.w3.org/2000/svg" viewBox="0 0 32 32"><title>RGB_bike-circle</title><path fill="#2c3e50" d="M22.5,15a3.49,3.49,0,0,0-1.3569.2733l-1.3831-2.3V10.5a.5.5,0,0,0-.4994-.5H17.26a.5.5,0,0,0,0,1H18.8v1.5573l-5.517.8909L12.474,11.83l1.1938-.1027A.3643.3643,0,0,0,13.6358,11H10.4963a.5.5,0,1,0,0,1l.905-.0778.4095.8175-1.2248,2.45A3.4616,3.4616,0,0,0,9.5,15a3.5,3.5,0,1,0,3.45,4.001h1.1426a1.4887,1.4887,0,0,0,2.8888-.69l2.6541-3.6048.6594,1.0966A3.4815,3.4815,0,1,0,22.5,15Zm-13,6a2.5,2.5,0,0,1,0-5,2.4689,2.4689,0,0,1,.6347.0918L9.042,18.2773a.5.5,0,0,0,.4473.7237h2.46A2.5042,2.5042,0,0,1,9.5,21Zm.7977-2.999.732-1.4637a2.4928,2.4928,0,0,1,.92,1.4637Zm3.7938,0H12.95a3.488,3.488,0,0,0-1.4626-2.3782l.8827-1.765L14.2658,17.65A1.4948,1.4948,0,0,0,14.0916,18.001ZM15.5,19a.5.5,0,1,1,.5-.5A.5.5,0,0,1,15.5,19Zm.9489-1.6529a1.4344,1.4344,0,0,0-1.3581-.2835l-1.3394-2.6788,5.187-.837.1383.23ZM22.5,21a2.4916,2.4916,0,0,1-1.6863-4.3335l1.2575,2.0913a.5.5,0,1,0,.8574-.5156l-1.257-2.09A2.4713,2.4713,0,0,1,22.5,16a2.5,2.5,0,1,1,0,5Z"/><path fill="#2c3e50" d="M16,3A13,13,0,1,1,3,16,13,13,0,0,1,16,3m0-1A14,14,0,1,0,30,16,14,14,0,0,0,16,2Z"/></svg>