<svg xmlns="http://www.w3.org/2000/svg" viewBox="0 0 32 32"><title>RGB_bike-outline</title><path fill="#2c3e50" d="M10.9884,19.1161l-.0957-.4708A3.79,3.79,0,0,0,9.498,16.4224l-.378-.2949L7.6248,19.1161ZM9.376,17.3717a2.996,2.996,0,0,1,.6084.9591H8.8964ZM6.9147,19.5536a.283.283,0,0,1-.0117-.2784l1.7023-3.4066-.4668-.123a3.7318,3.7318,0,0,0-.964-.1377,3.7944,3.7944,0,1,0,3.7182,4.5542l.0967-.4707H7.16A.2864.2864,0,0,1,6.9147,19.5536Zm.26,2.8577a3.0091,3.0091,0,0,1-.0107-6.0182h.0107a2.337,2.337,0,0,1,.2823.0176L6.2,18.9236a1.0728,1.0728,0,0,0,.96,1.5529H9.9854a3.02,3.02,0,0,1-2.8108,1.9348Zm17.6894-8.164a5.14,5.14,0,0,0-1.6789.2794l-1.6564-2.7542V8.5163A1.0745,1.0745,0,0,0,20.4553,7.443h-2.721A1.0733,1.0733,0,1,0,17.7278,9.59h1.7088v1.3918l-6.8914,1.1134-.7139-1.4269,1.0509-.0909a.8881.8881,0,0,0-.08-1.7726H8.53a1.0726,1.0726,0,1,0,.011,2.1451l.0192,0h.003l.9669-.083.35.6983L8.4491,14.4261a4.8555,4.8555,0,0,0-1.2745-.1788,5.1549,5.1549,0,1,0,5.022,6.2292h.9669a2.4284,2.4284,0,0,0,4.6089-1.0743,1.3984,1.3984,0,0,0-.0088-.15l3.1692-4.3042.4239.7052a5.1338,5.1338,0,1,0,3.5072-1.4055Zm0,9.5245a4.3512,4.3512,0,0,1-2.7523-7.7362l.2628-.2148-1.3751-2.2874-3.9614,5.38-.0869.1817.0215.1572a1.0987,1.0987,0,0,1,.0146.15,1.6433,1.6433,0,0,1-3.1937.55l-.0928-.2607H11.5285l-.0488.3359A4.418,4.418,0,1,1,8.53,15.27l.3213.1054,1.9074-3.8109L9.9932,10.038l-1.463.127a.2877.2877,0,0,1,0-.5753h4.2719a.1054.1054,0,0,1,.1035.1065.1014.1014,0,0,1-.0927.0986l-2.2005.1895L12.1,12.9621,20.2218,11.65V8.8045H17.7343a.2881.2881,0,1,1-.0034-.5762h2.7244a.2879.2879,0,0,1,.288.2879v3.4752l2.1136,3.514.3134-.1319a4.37,4.37,0,1,1,1.6936,8.3984ZM9.375,15.6157l.28.1943A4.3707,4.3707,0,0,1,11.48,18.7791l.0488.337H13.7l.0928-.2608a1.6826,1.6826,0,0,1,.1905-.3877l.1318-.1915-3.0355-6.069ZM13.16,18.3308h-.962a5.1658,5.1658,0,0,0-1.82-2.9623l.7023-1.4054,2.132,4.2641C13.1937,18.2605,13.1761,18.2956,13.16,18.3308ZM12.3685,13.5l2.2092,4.4146.3125-.0889a1.5892,1.5892,0,0,1,.4493-.0723,1.6246,1.6246,0,0,1,1.0411.3828l.32.2647,3.977-5.402-.461-.7656Zm4.1723,3.7934a2.3705,2.3705,0,0,0-1.2013-.3253,2.0732,2.0732,0,0,0-.3429.0284L13.55,14.1057l6.0573-.9786Zm7.0642-1.4562-.4522.1611,1.9582,3.2552a.2882.2882,0,0,1-.0977.3946.2938.2938,0,0,1-.3955-.0976l-1.96-3.2582-.3535.3262A3.7487,3.7487,0,0,0,21.07,19.4022a3.7944,3.7944,0,0,0,7.5887,0,3.7511,3.7511,0,0,0-5.0533-3.5648Zm1.2589,6.5739a3.0124,3.0124,0,0,1-3.0091-3.0091,2.9422,2.9422,0,0,1,.6465-1.8459l1.4426,2.3987a1.1032,1.1032,0,0,0,1.4728.3672,1.0759,1.0759,0,0,0,.3682-1.4728l-1.4465-2.4036a2.9795,2.9795,0,0,1,3.5346,2.9564A3.0124,3.0124,0,0,1,24.8639,22.4113ZM15.34,18.3288a1.0734,1.0734,0,1,0,1.0724,1.0744v-.001A1.0746,1.0746,0,0,0,15.34,18.3288Zm0,1.3615a.2881.2881,0,1,1,.2871-.2891v.001A.2881.2881,0,0,1,15.34,19.69Z"/></svg>