<svg xmlns="http://www.w3.org/2000/svg" viewBox="0 0 32 32"><title>RGB_bike</title><path fill="#2c3e50" d="M25.1,14.6a4.8823,4.8823,0,0,0-1.8995.3827l-1.9364-3.22V8.91l-.0013-.0007-.0012-.0019h.0025V8.3a.7.7,0,0,0-.6992-.7H17.7641a.7.7,0,0,0-.001,1.4H19.92v2.18l-7.7239,1.2473-1.1327-2.2656,1.6713-.1437A.51.51,0,0,0,12.69,9H8.2948a.7.7,0,0,0,0,1.4l1.267-.109.5732,1.1446L8.42,14.8649A4.85,4.85,0,0,0,6.9,14.6a4.9,4.9,0,1,0,4.8293,5.6014h1.6a2.0842,2.0842,0,0,0,4.0444-.9658l3.7158-5.0466.9231,1.5352A4.874,4.874,0,1,0,25.1,14.6ZM6.9,23a3.5,3.5,0,0,1,0-7,3.4642,3.4642,0,0,1,.8886.1285l-1.53,3.06a.7.7,0,0,0,.6262,1.0131h3.4442A3.5058,3.5058,0,0,1,6.9,23Zm1.1169-4.1986,1.0248-2.0492a3.4908,3.4908,0,0,1,1.2876,2.0492Zm5.3113,0H11.73a4.8831,4.8831,0,0,0-2.0476-3.33l1.2358-2.471L13.5721,18.31A2.0888,2.0888,0,0,0,13.3282,18.8014ZM15.3,20.2a.7.7,0,1,1,.7-.7A.7.7,0,0,1,15.3,20.2Zm1.3285-2.314a2.008,2.008,0,0,0-1.9013-.3969l-1.8752-3.75,7.2618-1.1718.1937.3222ZM25.1,23a3.4882,3.4882,0,0,1-2.3608-6.0669L24.5,19.861a.7.7,0,1,0,1.2-.7219l-1.76-2.9262A3.4593,3.4593,0,0,1,25.1,16a3.5,3.5,0,0,1,0,7Z"/></svg>