<svg xmlns="http://www.w3.org/2000/svg" viewBox="0 0 32 32"><title>RGB_bike-city</title><path fill="#2c3e50" d="M25.02,13.6454a4.8721,4.8721,0,0,0-1.5116.2354l-.9188-2.06h0L21.0882,8.4554H18.7565a.5494.5494,0,1,0,0,1.0988h1.62l.909,2.0211c-1.8871.412-2.5293,2.2663-3.0628,3.7968a6.4526,6.4526,0,0,1-1.0671,2.2173,1.97,1.97,0,0,0-1.6894-.9517,2.8153,2.8153,0,0,0-.2866.02l-2.1834-4.8858,1.61-.3728a.3593.3593,0,0,0,.2964-.3532.37.37,0,0,0-.3656-.363H10.28a.8536.8536,0,1,0,0,1.7071.6392.6392,0,0,0,.1976-.03l1.4128-.3335.6422,1.4226-2.0452,1.6384A4.94,4.94,0,1,0,11.9294,19.14h1.63a1.9774,1.9774,0,0,0,3.8631-.3728,5.552,5.552,0,0,0,1.8278-3.0512c.6323-1.8052,1.1362-2.9629,2.49-3.12l.7706,1.7267a4.982,4.982,0,1,0,2.5095-.6769ZM14.1722,17.1086a1.9663,1.9663,0,0,0-.6126.9419h-1.63a4.7962,4.7962,0,0,0-.7509-2.1094l1.818-1.452ZM6.98,22.3477A3.78,3.78,0,0,1,3.235,19.14H6.98a.9861.9861,0,0,0,.5928-.206L10.26,16.7554a3.75,3.75,0,0,1-3.28,5.5923Zm18.0409,0a3.7494,3.7494,0,0,1-2.0254-6.9265l1.5216,3.3945a.5479.5479,0,0,0,.5038.3238.63.63,0,0,0,.2273-.0491.5337.5337,0,0,0,.2766-.7162L24.0028,14.98a3.859,3.859,0,0,1,1.0176-.1374,3.7528,3.7528,0,1,1,0,7.5054Z"/></svg>