<?xml version="1.0" encoding="UTF-8"?>
<svg xmlns="http://www.w3.org/2000/svg" viewBox="0 0 32 32"><title>RGB_bike-parking-circle</title><path d="M22.56,17a3.4892,3.4892,0,0,0-1.3568.2733l-1.3831-2.3V12.5a.5.5,0,0,0-.4994-.5H17.32a.5.5,0,0,0,0,1h1.54v1.5573l-5.517.8909L12.5343,13.83l1.1938-.1027A.3643.3643,0,0,0,13.696,13H10.5566a.5.5,0,0,0,0,1l.905-.0778.4094.8175-1.2247,2.45A3.4622,3.4622,0,0,0,9.56,17a3.5,3.5,0,1,0,3.45,4.001h1.1426a1.4887,1.4887,0,0,0,2.8889-.69l2.6541-3.6048.6593,1.0966A3.4815,3.4815,0,1,0,22.56,17Zm-13,6a2.5,2.5,0,1,1,0-5,2.4683,2.4683,0,0,1,.6347.0918L9.1022,20.2773a.5.5,0,0,0,.4473.7237h2.46A2.5042,2.5042,0,0,1,9.56,23Zm.7978-2.999.732-1.4637a2.4931,2.4931,0,0,1,.92,1.4637Zm3.7938,0H13.01a3.4876,3.4876,0,0,0-1.4626-2.3782l.8827-1.765L14.326,19.65A1.4906,1.4906,0,0,0,14.1519,20.001ZM15.56,21a.5.5,0,1,1,.5-.5h0A.5006.5006,0,0,1,15.56,21Zm.9489-1.6529a1.4343,1.4343,0,0,0-1.3581-.2835l-1.3394-2.6788,5.187-.837.1384.23ZM22.56,23a2.4916,2.4916,0,0,1-1.6863-4.3335l1.2575,2.0913a.5.5,0,1,0,.8575-.5156l-1.257-2.09A2.4707,2.4707,0,0,1,22.56,18a2.5,2.5,0,0,1,0,5ZM18.727,7.1494A2.1032,2.1032,0,0,1,16.3644,9.3h-.8962V12H14.06V5h2.3041A2.1022,2.1022,0,0,1,18.727,7.1494Zm-1.4279,0c0-.5785-.3812-.9193-1.035-.9193h-.7959V8.07h.7959c.6537,0,1.035-.3408,1.035-.9209Z" style="fill: #262626;"/><path d="M16,3A13,13,0,1,1,3,16,13,13,0,0,1,16,3m0-1A14,14,0,1,0,30,16,14,14,0,0,0,16,2Z" style="fill: #2c3e50;"/></svg>
