<svg xmlns="http://www.w3.org/2000/svg" viewBox="0 0 32 32"><title>RGB_boat</title><path fill="#2c3e50" d="M26.1165,21.3742c-.08-.0495-.1639-.1-.2462-.1526a5.452,5.452,0,0,0-6.1066,0,4.0266,4.0266,0,0,1-2.4625.767,4.015,4.015,0,0,1-2.4619-.767,5.1392,5.1392,0,0,0-3.0548-.9352,5.1254,5.1254,0,0,0-3.0507.9352,4.0294,4.0294,0,0,1-2.4637.767,4.0157,4.0157,0,0,1-2.4608-.767,6.2862,6.2862,0,0,0-1.4219-.7035L2,22.1938a5.0244,5.0244,0,0,1,1.175.5891,5.1308,5.1308,0,0,0,3.0455.938,5.1238,5.1238,0,0,0,3.0459-.938,3.9917,3.9917,0,0,1,2.4514-.7642,4.0216,4.0216,0,0,1,2.4574.7642,5.1084,5.1084,0,0,0,3.0425.938,5.1173,5.1173,0,0,0,3.0436-.938,4.3251,4.3251,0,0,1,4.91,0c.0217.0141.0451.03.07.0445Zm-.449-6.6766L24.0054,8.0364c-.0547-.1826-.2075-.2528-.465-.2528H21.13L20.7558,6.04a.4485.4485,0,0,0-.5763-.265l-.0049.0019L17.4505,6.93a.5944.5944,0,0,0-.4468.6641V9.7175H6.9867a.49.49,0,0,0-.459.45L5.5186,14.6872H3.8408a.428.428,0,0,0-.4308.3253l-.7264,3.7749a7.9982,7.9982,0,0,1,1.7217.7074,3.212,3.212,0,0,0,1.83.4918,3.22,3.22,0,0,0,1.8322-.4918,7.1666,7.1666,0,0,1,3.6844-.9467,7.1713,7.1713,0,0,1,3.6879.9467,3.2137,3.2137,0,0,0,1.8311.4918,3.207,3.207,0,0,0,1.83-.4918,7.1875,7.1875,0,0,1,3.69-.9467,7.1674,7.1674,0,0,1,3.6851.9467c.0981.05.2721.14.2721.14l3.1969-4.3473a.3908.3908,0,0,0-.3755-.59Zm-14.34,0H6.7548l.5086-2.3937H11.328Zm5.5507,0H12.2379V12.3039h4.6408Zm.8752,0V12.3039h4.6l.482,2.3937Z"/></svg>