<svg xmlns="http://www.w3.org/2000/svg" viewBox="0 0 32 32"><title>RGB_boat-circle</title><path fill="#2c3e50" d="M24.0063,20.19c-.0621-.0382-.1264-.0774-.19-.1177a4.2051,4.2051,0,0,0-4.71,0,3.3436,3.3436,0,0,1-3.798,0,3.9631,3.9631,0,0,0-2.3559-.7212,3.9527,3.9527,0,0,0-2.3528.7212,3.108,3.108,0,0,1-1.9.5916,3.0974,3.0974,0,0,1-1.8979-.5916A4.8484,4.8484,0,0,0,5.7056,19.53L5.435,20.6848l.0035.0015-.0318.136a3.8716,3.8716,0,0,1,.9062.4544A3.9568,3.9568,0,0,0,8.6617,22a3.9516,3.9516,0,0,0,2.3492-.7233,3.0784,3.0784,0,0,1,1.8906-.59,3.1012,3.1012,0,0,1,1.8951.59,4.169,4.169,0,0,0,4.6939,0,3.3356,3.3356,0,0,1,3.7867,0c.0167.0108.0348.0234.0542.0343l.0828-.138.0007,0Z"/><path fill="#2c3e50" d="M26.8547,15.046a.3022.3022,0,0,0-.1858-.0412H23.66L22.3781,9.8674c-.0421-.1408-.16-.1949-.3586-.1949H20.1606l-.2887-1.3446a.3459.3459,0,0,0-.4444-.2044l-.0039.0015-2.1009.8888a.4584.4584,0,0,0-.3446.5121v1.638H9.2527a.3784.3784,0,0,0-.3541.3475L8.12,14.9968H6.8264a.33.33,0,0,0-.3322.2509l-.56,2.9114a6.1672,6.1672,0,0,1,1.3278.5455,2.4772,2.4772,0,0,0,1.4112.3794,2.4835,2.4835,0,0,0,1.4131-.3794,5.5273,5.5273,0,0,1,2.8415-.73,5.5315,5.5315,0,0,1,2.8443.73,2.4791,2.4791,0,0,0,1.4122.3794,2.4737,2.4737,0,0,0,1.4112-.3794,5.9035,5.9035,0,0,1,5.6877,0c.0757.0387.21.1077.21.1077L26.9586,15.46A.3015.3015,0,0,0,26.8547,15.046Zm-14.2539-.0412H9.0738l.3922-1.846h3.1348Zm4.2809,0H13.3026v-1.846h3.5791Zm.675,0v-1.846h3.5474l.3717,1.846Z"/><path fill="#2c3e50" d="M16,3A13,13,0,1,1,3,16,13,13,0,0,1,16,3m0-1A14,14,0,1,0,30,16,14,14,0,0,0,16,2Z"/></svg>