<svg xmlns="http://www.w3.org/2000/svg" viewBox="0 0 32 32"><title>RGB_bus-circle</title><path fill="#2c3e50" d="M12.8582,20.4231a1.5769,1.5769,0,1,1-1.5769-1.5769,1.5769,1.5769,0,0,1,1.5769,1.5769Z"/><path fill="#2c3e50" d="M25.6926,11.1875H6.3318a.4136.4136,0,0,0-.412.4134v8.0939a.4145.4145,0,0,0,.412.4129H8.745a2.5542,2.5542,0,0,1,5.0726,0h4.3888a2.5542,2.5542,0,0,1,5.0726,0h2.4136a.4143.4143,0,0,0,.4115-.4129V11.6009A.4135.4135,0,0,0,25.6926,11.1875ZM10.8563,16.2336H6.8276v-3.35h4.0287Zm4.7805,0H11.6091v-3.35h4.0277Zm4.7873,0H16.3882v-3.35h4.0359Zm4.7729,0H21.1678v-3.35H25.197Z"/><path fill="#2c3e50" d="M22.32,20.4231a1.5769,1.5769,0,1,1-1.5769-1.5769A1.5769,1.5769,0,0,1,22.32,20.4231Z"/><path fill="#2c3e50" d="M16,3A13,13,0,1,1,3,16,13,13,0,0,1,16,3m0-1A14,14,0,1,0,30,16,14,14,0,0,0,16,2Z"/></svg>