<svg xmlns="http://www.w3.org/2000/svg" viewBox="0 0 32 32"><title>RGB_bus</title><path fill="#2c3e50" d="M11.625,22.8118a2.1875,2.1875,0,1,1-2.1875-2.1875,2.1875,2.1875,0,0,1,2.1875,2.1875ZM29.4291,10H2.5715A.5738.5738,0,0,0,2,10.5735V21.8014a.5751.5751,0,0,0,.5715.5729H5.9191a3.5432,3.5432,0,0,1,7.0368,0h6.0882a3.5432,3.5432,0,0,1,7.0368,0h3.3482A.5749.5749,0,0,0,30,21.8014V10.5735A.5736.5736,0,0,0,29.4291,10ZM8.8478,17H3.2592V12.3529H8.8478ZM15.48,17H9.8923V12.3529H15.48Zm6.6411,0H16.5219V12.3529h5.5987Zm6.6209,0H23.1522V12.3529h5.5893ZM24.75,22.8118a2.1875,2.1875,0,1,1-2.1875-2.1875A2.1875,2.1875,0,0,1,24.75,22.8118Z"/></svg>