<svg xmlns="http://www.w3.org/2000/svg" viewBox="0 0 32 32"><title>RGB_cross</title><path fill="#2c3e50" d="M19.3174,15.775a.3347.3347,0,0,0-.0038.4729l.0038.0038,5.0633,5.097a.2977.2977,0,0,1,0,.4767L21.809,24.4006a.3362.3362,0,0,1-.4758.0015l-.0015-.0015-5.09-5.07a.3354.3354,0,0,0-.4748-.0019l-.0019.0019-5.09,5.07a.3362.3362,0,0,1-.4758.0015l-.0015-.0015L7.5993,21.8254a.3356.3356,0,0,1-.0024-.4743l.0024-.0024,5.09-5.097a.3347.3347,0,0,0,.0038-.4729l-.0038-.0038-5.09-5.0969a.3356.3356,0,0,1-.0024-.4743l.0024-.0024,2.5984-2.602a.3362.3362,0,0,1,.4758-.0015l.0015.0015,5.09,5.097a.3355.3355,0,0,0,.4748.0019l.0019-.0019,5.09-5.097a.3362.3362,0,0,1,.4758-.0015l.0015.0015,2.5717,2.602a.2977.2977,0,0,1,0,.4767Z"/></svg>