<svg xmlns="http://www.w3.org/2000/svg" viewBox="0 0 32 32"><title>RGB_exclamation-triangle</title><path fill="#2c3e50" d="M14.9975,19.5456a4.1263,4.1263,0,0,0,.2734,1.2623.6894.6894,0,0,0,.6835.4148.7162.7162,0,0,0,.6927-.4284,3.5234,3.5234,0,0,0,.2734-1.23l.3919-4.4935a11.9323,11.9323,0,0,0,.0638-1.2213,3.6691,3.6691,0,0,0-.2643-1.5632,1.05,1.05,0,0,0-1.0481-.5423,1.3622,1.3622,0,0,0-1.0435.4238,1.6609,1.6609,0,0,0-.3965,1.18q0,.5559.082,1.832Z"/><path fill="#2c3e50" d="M16.0091,25.543a1.3958,1.3958,0,0,0,.957-.3646,1.2727,1.2727,0,0,0,.41-1.0026,1.2946,1.2946,0,0,0-.4056-.9616,1.35,1.35,0,0,0-.98-.3965,1.3539,1.3539,0,0,0-1.3671,1.3581,1.2625,1.2625,0,0,0,.4147,1.0071A1.4337,1.4337,0,0,0,16.0091,25.543Z"/><path fill="#2c3e50" d="M29.9,28.6492,16.8347,2.5159a.9332.9332,0,0,0-1.6694,0L2.1,28.6492A.9334.9334,0,0,0,2.9344,30H29.0656A.9334.9334,0,0,0,29.9,28.6492ZM3,29,16,3,29,29Z"/></svg>