<svg xmlns="http://www.w3.org/2000/svg" viewBox="0 0 32 32"><title>RGB_exclamation-circle</title><path fill="#2c3e50" d="M14.8971,17.1l-.3208-4.8024q-.09-1.4037-.09-2.0153a1.8267,1.8267,0,0,1,.4361-1.2984,1.4986,1.4986,0,0,1,1.148-.4662,1.1554,1.1554,0,0,1,1.153.5966,4.036,4.036,0,0,1,.2907,1.72,13.1385,13.1385,0,0,1-.07,1.3434L17.0126,17.12a3.8735,3.8735,0,0,1-.3008,1.3535.7878.7878,0,0,1-.7619.4712.7584.7584,0,0,1-.752-.4562A4.5424,4.5424,0,0,1,14.8971,17.1ZM16.01,23.6973a1.5772,1.5772,0,0,1-1.0677-.3961,1.3886,1.3886,0,0,1-.4562-1.1078A1.4891,1.4891,0,0,1,15.99,20.7a1.4859,1.4859,0,0,1,1.0778.4361,1.4243,1.4243,0,0,1,.4461,1.0578,1.4,1.4,0,0,1-.4511,1.1028A1.535,1.535,0,0,1,16.01,23.6973Z"/><path fill="#2c3e50" d="M16,2A14,14,0,1,0,30,16,14,14,0,0,0,16,2Zm0,27A13,13,0,1,1,29,16,13,13,0,0,1,16,29Z"/></svg>