<svg xmlns="http://www.w3.org/2000/svg" viewBox="0 0 32 32"><title>RGB_exclamation</title><path fill="#2c3e50" d="M18.04,25.606a2.7208,2.7208,0,0,1,.8524,2.0208,2.6742,2.6742,0,0,1-.862,2.1069,2.9324,2.9324,0,0,1-2.0112.7663,3.0138,3.0138,0,0,1-2.04-.7567,2.6533,2.6533,0,0,1-.8715-2.1165,2.8452,2.8452,0,0,1,2.8732-2.8541A2.8375,2.8375,0,0,1,18.04,25.606Zm-4.1469-7.71a8.67,8.67,0,0,0,.5746,2.6529,1.4492,1.4492,0,0,0,1.4366.8717,1.5052,1.5052,0,0,0,1.4558-.9,7.4035,7.4035,0,0,0,.5746-2.586l.8236-9.4431a25.0235,25.0235,0,0,0,.1341-2.5667A7.7106,7.7106,0,0,0,18.3369,2.64,2.2073,2.2073,0,0,0,16.134,1.5a2.8628,2.8628,0,0,0-2.1931.8907,3.49,3.49,0,0,0-.8332,2.4806q0,1.1682.1724,3.85Z"/></svg>