<svg xmlns="http://www.w3.org/2000/svg" viewBox="0 0 32 32"><title>RGB_exclamation-alt</title><path fill="#2c3e50" d="M16,2A14,14,0,1,0,30,16,14,14,0,0,0,16,2Zm1.0627,21.2962a1.5346,1.5346,0,0,1-1.0527.4011,1.5775,1.5775,0,0,1-1.0677-.3961,1.3889,1.3889,0,0,1-.4562-1.1078A1.4889,1.4889,0,0,1,15.99,20.7a1.4851,1.4851,0,0,1,1.0777.4361,1.4239,1.4239,0,0,1,.4462,1.0578A1.4,1.4,0,0,1,17.0627,23.2962Zm.381-11.1189-.431,4.9429a3.878,3.878,0,0,1-.3008,1.3535.7879.7879,0,0,1-.7619.4712.7584.7584,0,0,1-.752-.4562A4.5364,4.5364,0,0,1,14.8972,17.1l-.3209-4.8024q-.09-1.4037-.09-2.0153a1.8275,1.8275,0,0,1,.436-1.2984A1.499,1.499,0,0,1,16.07,8.5178a1.1551,1.1551,0,0,1,1.1529.5966,4.0342,4.0342,0,0,1,.2908,1.72A13.1105,13.1105,0,0,1,17.4437,12.1773Z"/></svg>