<svg xmlns="http://www.w3.org/2000/svg" viewBox="0 0 32 32"><title>RGB_information-alt-circle</title><path fill="#2c3e50" d="M17.3686,14.1424V22.053a1.7663,1.7663,0,0,1-.3911,1.2432,1.2951,1.2951,0,0,1-.9925.4211,1.2361,1.2361,0,0,1-.9776-.4311,1.82,1.82,0,0,1-.376-1.2332v-7.83A1.7573,1.7573,0,0,1,15.0074,13a1.2633,1.2633,0,0,1,.9776-.4111A1.31,1.31,0,0,1,16.9775,13,1.5912,1.5912,0,0,1,17.3686,14.1424ZM16.015,11.3151a1.4446,1.4446,0,0,1-.9775-.3509,1.2411,1.2411,0,0,1-.4061-.9926,1.2335,1.2335,0,0,1,.4161-.9575,1.3987,1.3987,0,0,1,.9675-.3759,1.4348,1.4348,0,0,1,.9425.3408,1.2161,1.2161,0,0,1,.4111.9926,1.2519,1.2519,0,0,1-.4011.9876A1.387,1.387,0,0,1,16.015,11.3151Z"/><path fill="#2c3e50" d="M16,3A13,13,0,1,1,3,16,13,13,0,0,1,16,3m0-1A14,14,0,1,0,30,16,14,14,0,0,0,16,2Z"/></svg>