<svg xmlns="http://www.w3.org/2000/svg" viewBox="0 0 32 32"><title>RGB_paragraph-circle</title><path fill="#2c3e50" d="M15.1532,10.7061c.0658.7074.5259,1.01,2.1309,1.3146,2.283.3927,3.3781,1.4793,3.5612,3.45a3.6588,3.6588,0,0,1-2.2225,3.7491,4.3777,4.3777,0,0,1,.4526,1.621c.2109,2.27-1.464,4.003-4.2053,4.2577a5.8994,5.8994,0,0,1-3.6836-.5869l-.2229-2.3987.3248-.2243a4.6864,4.6864,0,0,0,3.1391.7666c1.2629-.1174,1.9044-.6527,1.8348-1.4016-.0636-.6853-.5258-1.0094-2.1308-1.3146-2.283-.3927-3.3752-1.4572-3.56-3.45a3.656,3.656,0,0,1,2.2216-3.7481,4.2684,4.2684,0,0,1-.4506-1.6008c-.2109-2.27,1.4852-4.004,4.2054-4.2567a5.8564,5.8564,0,0,1,3.6835.5859l.2208,2.3775-.3227.2465a4.6918,4.6918,0,0,0-3.14-.7887C15.7252,9.4219,15.0856,9.9784,15.1532,10.7061Zm1.5633,4.0459a5.799,5.799,0,0,0-1.5186-.0754c-1.2426.1154-1.8842.6508-1.8145,1.4006.0517.5563.3626.8731,1.3389,1.15a5.7671,5.7671,0,0,0,1.4973.0764c1.2639-.1174,1.9054-.6527,1.8358-1.4016-.0538-.5785-.3638-.8953-1.3389-1.15Z"/><path fill="#2c3e50" d="M16,3A13,13,0,1,1,3,16,13,13,0,0,1,16,3m0-1A14,14,0,1,0,30,16,14,14,0,0,0,16,2Z"/></svg>