<svg xmlns="http://www.w3.org/2000/svg" viewBox="0 0 32 32"><title>RGB_questionmark-circle</title><path fill="#2c3e50" d="M14.5684,19.161c.0476-2.1245.551-3.5078,1.7916-4.6057.9513-.8562,1.5022-1.2367,1.5022-2.2633,0-1.1692-.9552-1.93-2.5288-1.93a5.416,5.416,0,0,0-3.3612,1.094l-.4082-.2378v-2.62A7.2793,7.2793,0,0,1,15.7139,7.5c3.603,0,5.4381,1.8114,5.4381,4.578,0,1.8827-.979,2.9331-2.3861,4.031a3.7326,3.7326,0,0,0-1.3833,3.052Zm3.1749,1.7876V24.5H14.2117V20.9486Z"/><path fill="#2c3e50" d="M16,3A13,13,0,1,1,3,16,13,13,0,0,1,16,3m0-1A14,14,0,1,0,30,16,14,14,0,0,0,16,2Z"/></svg>