<svg xmlns="http://www.w3.org/2000/svg" viewBox="0 0 32 32"><title>RGB_rental-car-circle</title><path fill="#2c3e50" d="M22.69,17s-1.218-2.4489-1.3971-2.9171A1.6814,1.6814,0,0,0,19.569,13H12.431a1.6792,1.6792,0,0,0-1.724,1.0829C10.5278,14.5511,9.31,17,9.31,17A1.7351,1.7351,0,0,0,8,18.6977V23H9v.8a1.2341,1.2341,0,0,0,2.4673,0V23h9.0654v.8A1.2341,1.2341,0,0,0,23,23.8V23h1V18.6977A1.7378,1.7378,0,0,0,22.69,17ZM10.6174,20.8709a1.0822,1.0822,0,0,1-1.0993-1.0531,1.1073,1.1073,0,0,1,1.0993-1.0829,1.0821,1.0821,0,0,1,1.07,1.0829,1.0568,1.0568,0,0,1-1.06,1.0532ZM10.7651,17s.9225-2.0771,1.1017-2.481A.75.75,0,0,1,12.3729,14h7.2542a.7544.7544,0,0,1,.506.519c.1792.4039,1.0993,2.481,1.0993,2.481Zm10.6175,3.8709a1.0568,1.0568,0,0,1-1.07-1.0432v-.01a1.07,1.07,0,0,1,2.14-.0245c0,.0082,0,.0163,0,.0245a1.0583,1.0583,0,0,1-1.0634,1.0532Z"/><path fill="#2c3e50" d="M20.1683,7.1251H15.5811a2.5049,2.5049,0,1,0,.2137,2.356h.92l.133-.16.5626-.5353.5364.5354.5626-.5354.5625.5354.5342-.5354.5626.5354.8307-.83V8.0075ZM12.6526,9.1564a.6527.6527,0,1,1,.6528-.6527h0A.6528.6528,0,0,1,12.6526,9.1564Z"/><path fill="#2c3e50" d="M16,3A13,13,0,1,1,3,16,13,13,0,0,1,16,3m0-1A14,14,0,1,0,30,16,14,14,0,0,0,16,2Z"/></svg>