<svg xmlns="http://www.w3.org/2000/svg" viewBox="0 0 32 32"><title>scooter</title><path fill="#2c3e50" d="M26.778,20.4549,22.3663,5.7519a.915.915,0,0,0-.882-.657H18.3269a.921.921,0,0,0,0,1.842h2.4719l2.8024,9.3381c-.0071.0087-.0176.0125-.0244.0215l-4.6192,6.1589H8.2084A3.2244,3.2244,0,1,0,8.39,24.2973H19.419a.9248.9248,0,0,0,.7379-.369l4.1-5.4672.757,2.5221a3.2184,3.2184,0,1,0,1.7638-.5284Zm-.0033,4.6974a1.473,1.473,0,1,1,1.4729-1.4729A1.4729,1.4729,0,0,1,26.7747,25.1523Zm-21.547,0a1.473,1.473,0,1,1,1.4729-1.4729A1.4729,1.4729,0,0,1,5.2277,25.1523Z"/></svg>