<svg xmlns="http://www.w3.org/2000/svg" viewBox="0 0 32 32"><title>RGB_scooter-circle</title><path fill="#2c3e50" d="M22.9288,17.8754l-2.8365-9.453A.5881.5881,0,0,0,19.5253,8h-2.03a.5921.5921,0,1,0,0,1.1842h1.5893l1.8017,6.0038c-.0046.0056-.0113.0081-.0157.0139l-2.97,3.96H10.99a2.0731,2.0731,0,1,0,.1169,1.1843h7.0907a.595.595,0,0,0,.4745-.2372l2.6362-3.5151.4867,1.6215a2.0692,2.0692,0,1,0,1.134-.34Zm-.0022,3.02a.947.947,0,1,1,.947-.947A.947.947,0,0,1,22.9266,20.8955Zm-13.8532,0a.947.947,0,1,1,.947-.947A.947.947,0,0,1,9.0734,20.8955Z"/><path fill="#2c3e50" d="M16,3A13,13,0,1,1,3,16,13,13,0,0,1,16,3m0-1A14,14,0,1,0,30,16,14,14,0,0,0,16,2Z"/></svg>