<svg xmlns="http://www.w3.org/2000/svg" viewBox="0 0 32 32"><title>RGB_ship-circle</title><path fill="#2c3e50" d="M24.1951,22.1346a2.4044,2.4044,0,0,0-1.0975-.3093A2.3744,2.3744,0,0,0,22,22.1346a2.9344,2.9344,0,0,1-1.3221.338,2.0593,2.0593,0,0,1-1.1251-.338,2.5385,2.5385,0,0,0-1.1273-.3093,2.3745,2.3745,0,0,0-1.0976.3093,2.839,2.839,0,0,1-1.3221.338l-.0059,0-.0059,0a2.839,2.839,0,0,1-1.3221-.338,2.3745,2.3745,0,0,0-1.0976-.3093,2.5385,2.5385,0,0,0-1.1273.3093,2.0593,2.0593,0,0,1-1.1251.338A2.9344,2.9344,0,0,1,10,22.1346a2.3744,2.3744,0,0,0-1.0975-.3093,2.4044,2.4044,0,0,0-1.0975.3093A2.6921,2.6921,0,0,1,7,22.4494v1.5193a2.6756,2.6756,0,0,0,.8049-.3138,2.8222,2.8222,0,0,1,1.0975-.2819A2.7439,2.7439,0,0,1,10,23.6549a2.6191,2.6191,0,0,0,1.3221.3368,2.0577,2.0577,0,0,0,1.1251-.3368,2.9845,2.9845,0,0,1,1.1273-.2819,2.7448,2.7448,0,0,1,1.0976.2819,2.5434,2.5434,0,0,0,1.3221.3368l.0059,0,.0059,0a2.5434,2.5434,0,0,0,1.3221-.3368,2.7448,2.7448,0,0,1,1.0976-.2819,2.9845,2.9845,0,0,1,1.1273.2819,2.0577,2.0577,0,0,0,1.1251.3368A2.6191,2.6191,0,0,0,22,23.6549a2.7439,2.7439,0,0,1,1.0975-.2819,2.8222,2.8222,0,0,1,1.0975.2819A2.6756,2.6756,0,0,0,25,23.9687V22.4494A2.6921,2.6921,0,0,1,24.1951,22.1346Zm-15.2927-1.21A2.7422,2.7422,0,0,1,10,21.2066a2.9483,2.9483,0,0,0,1.3221.338,2.0593,2.0593,0,0,0,1.1251-.338,2.547,2.547,0,0,1,1.1273-.2818,2.7431,2.7431,0,0,1,1.0976.2818,2.8514,2.8514,0,0,0,1.3221.338l.0059,0,.0059,0a2.8538,2.8538,0,0,0,1.3221-.338,2.7431,2.7431,0,0,1,1.0976-.2818,2.5457,2.5457,0,0,1,1.1273.2818,2.06,2.06,0,0,0,1.1251.338A2.95,2.95,0,0,0,22,21.2066a2.7422,2.7422,0,0,1,1.0975-.2818,2.4106,2.4106,0,0,1,1.0975.2818,2.6978,2.6978,0,0,0,.8028.3142V19.9731a2.7007,2.7007,0,0,1-.8028-.3143,2.8428,2.8428,0,0,0-1.0975-.2818A2.7422,2.7422,0,0,0,22,19.6588a4.2435,4.2435,0,0,1-1.0079.3093V18l1-4L21,13.4754V9H20V8H17.0078L17,6H15l-.0078,2H12V9H11v4.4754L10.0078,14l1,4v1.9681A4.2435,4.2435,0,0,1,10,19.6588a2.7422,2.7422,0,0,0-1.0975-.2818,2.8428,2.8428,0,0,0-1.0975.2818A2.71,2.71,0,0,1,7,19.973v1.5478a2.7073,2.7073,0,0,0,.8049-.3142A2.4131,2.4131,0,0,1,8.9024,20.9248ZM12.0078,10H13V9h6v1h.9922v3.0242l-1.8473-.9367a4.743,4.743,0,0,0-4.29,0l-1.8473.9367Z"/><path fill="#2c3e50" d="M16,3A13,13,0,1,1,3,16,13,13,0,0,1,16,3m0-1A14,14,0,1,0,30,16,14,14,0,0,0,16,2Z"/></svg>