<svg xmlns="http://www.w3.org/2000/svg" viewBox="0 0 32 32"><title>RGB_taxi-circle</title><path fill="#2c3e50" d="M22.69,17s-1.218-2.449-1.3971-2.9171A1.6814,1.6814,0,0,0,19.569,13H18v-.9563a.5.5,0,0,0-.5-.5h-3a.5.5,0,0,0-.5.5V13H12.431a1.6791,1.6791,0,0,0-1.724,1.0829C10.5278,14.551,9.31,17,9.31,17A1.7351,1.7351,0,0,0,8,18.6976V23H9v.8a1.2341,1.2341,0,0,0,2.4673,0V23h9.0653v.8A1.2342,1.2342,0,0,0,23,23.8V23h1V18.6976A1.7378,1.7378,0,0,0,22.69,17ZM11.8668,14.519a.75.75,0,0,1,.506-.519H19.627a.7542.7542,0,0,1,.506.519c.1792.4039,1.0993,2.481,1.0993,2.481H10.7651S11.6876,14.9228,11.8668,14.519Zm-1.2494,6.3519a1.0822,1.0822,0,0,1-1.0993-1.0531,1.1073,1.1073,0,0,1,1.0993-1.0829,1.0821,1.0821,0,0,1,1.07,1.0829,1.0567,1.0567,0,0,1-1.06,1.0532Zm10.7652,0a1.0567,1.0567,0,0,1-1.07-1.0432v-.01a1.07,1.07,0,0,1,2.14-.0244c0,.0081,0,.0163,0,.0244a1.0584,1.0584,0,0,1-1.0634,1.0532Z"/><path fill="#2c3e50" d="M13.0661,6.7469H11.9622v3.538h-.8583V6.7469H10V5.9925h3.0661Zm3.6288,3.4157v.1223H15.83l-.2507-.8827H14.168l-.2508.8827h-.8225v-.1223l1.3312-4.17H15.37ZM15.3637,8.654,14.8917,6.98H14.855L14.3831,8.654Zm5.07,1.5025v.1284h-.9011l-.7359-1.46h-.0734l-.7849,1.46h-.872v-.1284l1.2033-2.0111L17.0976,6.1149V5.9925h.9077l.7176,1.3924h.0734l.7421-1.3924h.8644v.1224L19.2376,8.0832Zm.7084-4.164H22v4.2924h-.8583Z"/><path fill="#2c3e50" d="M16,3A13,13,0,1,1,3,16,13,13,0,0,1,16,3m0-1A14,14,0,1,0,30,16,14,14,0,0,0,16,2Z"/></svg>