<svg xmlns="http://www.w3.org/2000/svg" viewBox="0 0 32 32"><title>RGB_taxi</title><path fill="#2c3e50" d="M27.7076,13.5486s-2.1314-4.2857-2.4448-5.105a2.9423,2.9423,0,0,0-3.017-1.895H19.5V4.875A.8751.8751,0,0,0,18.625,4h-5.25a.8751.8751,0,0,0-.875.875V6.5486H9.7542a2.9385,2.9385,0,0,0-3.017,1.895c-.3135.8193-2.4449,5.105-2.4449,5.105A3.0363,3.0363,0,0,0,2,16.5194v7.5292H3.75v1.4006a2.16,2.16,0,0,0,4.3177,0V24.0486H23.9321v1.4006a2.16,2.16,0,0,0,4.3179,0V24.0486H30V16.5194A3.041,3.041,0,0,0,27.7076,13.5486ZM8.7669,9.2068a1.3124,1.3124,0,0,1,.8856-.9082H22.3473a1.32,1.32,0,0,1,.8857.9082c.3136.7068,1.9238,4.3418,1.9238,4.3418H6.8389S8.4533,9.9136,8.7669,9.2068ZM6.5805,20.3225A1.8936,1.8936,0,0,1,4.6567,18.48a1.9379,1.9379,0,0,1,1.9238-1.8951A1.8936,1.8936,0,0,1,8.4533,18.48a1.8492,1.8492,0,0,1-1.8554,1.843Zm18.839,0a1.8493,1.8493,0,0,1-1.8728-1.8254V18.48a1.873,1.873,0,1,1,3.7458-.04q0,.02,0,.04a1.8519,1.8519,0,0,1-1.8608,1.8429Z"/></svg>