<svg xmlns="http://www.w3.org/2000/svg" viewBox="0 0 32 32"><title>RGB_tick-circle</title><path fill="#2c3e50" d="M23.94,11.6152a.2274.2274,0,0,1,0,.308L13.5338,22.41a.2024.2024,0,0,1-.2862.0028l-.0028-.0028C10.3879,19.5266,9.5371,18.6678,8.06,17.193a.2274.2274,0,0,1,0-.308L10.0666,14.86a.2207.2207,0,0,1,.3051,0l2.8731,2.9a.2024.2024,0,0,0,.2862.0028l.0028-.0028L21.6283,9.59a.2221.2221,0,0,1,.3051,0Z"/><path fill="#2c3e50" d="M16,3A13,13,0,1,1,3,16,13,13,0,0,1,16,3m0-1A14,14,0,1,0,30,16,14,14,0,0,0,16,2Z"/></svg>