<svg xmlns="http://www.w3.org/2000/svg" viewBox="0 0 32 32"><title>RGB_train-circle</title><path fill="#2c3e50" d="M16,2A14,14,0,1,0,30,16,14,14,0,0,0,16,2Zm0,27A13.0056,13.0056,0,0,1,4.48,22.0022H24V20.5627H3.8425a12.8593,12.8593,0,0,1-.447-1.4384H24.5361A2.47,2.47,0,0,0,26.27,14.8975l-3.534-3.56a.5464.5464,0,0,0-.3556-.1337h-6.816l2.7928-1.4c.289-.1534.289-.3943,0-.5476L13.7732,6.8843h-1.89L16.7121,9.52l-3.3338,1.6849H3.928A12.9955,12.9955,0,1,1,16,29Zm3.2755-14.3513V12.64h2.7373l1.94,2.0089Z"/></svg>