<svg xmlns="http://www.w3.org/2000/svg" viewBox="0 0 32 32"><title>RGB_tram</title><path fill="#2c3e50" d="M2.9985,24.0066h26V26h-26Zm26.9524-6.3239-.54-2.4164-.9465-4.2194h-.0013l-.1291-.57A.6341.6341,0,0,0,27.7367,10H16.2285L18.772,7.7732a.6624.6624,0,0,0-.0254-1.0214L15.3148,4.0073h-2.151L17.279,7.2956,14.1884,10H4.26a.64.64,0,0,0-.6.4769l-.529,2.3676L2.1237,17.33l-.0785.3528a3.0907,3.0907,0,0,0,.39,2.0812l1.0588,1.5H7v.7588A.9846.9846,0,0,0,7.9838,23h3.0429a.9832.9832,0,0,0,.9873-.9769v-.7588h7.9952v.7588A.9847.9847,0,0,0,20.9958,23h3.0423a.9852.9852,0,0,0,.9853-.9769v-.7588h3.4787l1.058-1.5A3.0764,3.0764,0,0,0,29.9509,17.6827ZM9.0126,17H3.505l.913-4.6471H9.0126Zm6.4988,0h-5.51V12.3529h5.51Zm6.4963,0h-5.509V12.3529h5.509Zm.99,0V12.3529h4.58L28.49,17Z"/></svg>