<svg xmlns="http://www.w3.org/2000/svg" viewBox="0 0 32 32"><title>RGB_tram-circle</title><rect x="7" y="21.289" width="18" height="1.4352"/><path fill="#2c3e50" d="M26.0655,16.7456l-.3892-1.7416-.6821-3.0409h-.0009L24.9,11.5522a.457.457,0,0,0-.43-.3437H16.1757l1.8331-1.6048a.4776.4776,0,0,0-.0183-.7362L15.5172,6.89h-1.55l2.9658,2.37-2.2274,1.9491H7.55a.4614.4614,0,0,0-.4327.3437l-.3813,1.7064L6.01,16.4913l-.0566.2543a2.2273,2.2273,0,0,0,.2812,1.5l.763,1.0815H9.5244v.5468a.71.71,0,0,0,.7092.704h2.1931a.7087.7087,0,0,0,.7116-.704v-.5468h5.7622v.5468a.71.71,0,0,0,.7111.704h2.1925a.71.71,0,0,0,.71-.704v-.5468h2.5071l.7625-1.0815A2.2167,2.2167,0,0,0,26.0655,16.7456Zm-15.09-.4921H7.0058l.658-3.3492h3.3113Zm4.6837,0H11.6881V12.9043h3.9708Zm4.682,0h-3.97V12.9043h3.97Zm.7133,0V12.9043h3.301l.6572,3.3492Z"/><path fill="#2c3e50" d="M16,3A13,13,0,1,1,3,16,13,13,0,0,1,16,3m0-1A14,14,0,1,0,30,16,14,14,0,0,0,16,2Z"/></svg>