<svg xmlns="http://www.w3.org/2000/svg" viewBox="0 0 32 32"><title>RGB_walk-circle</title><path fill="#2c3e50" d="M13.3,11.067a.6011.6011,0,0,0-.383.3555l-1.5433,3.7121a.624.624,0,0,0,1.1531.4773h0l1.4356-3.453,1.103-.3673-1.5279,3.9867a1.7035,1.7035,0,0,0,.1508,1.5028l-3.5955,7.4382a.8931.8931,0,1,0,1.6082.7774l3.327-6.8827,3.6237,6.9095a.8932.8932,0,0,0,1.2058.3761l.01-.0051h0a.8933.8933,0,0,0,.3665-1.2007L16.546,17.663l1.5265-3.9825.333,1.142a.5866.5866,0,0,0,.34.3714l2.3725,1.2692a.624.624,0,0,0,.5092-1.1395h0l-2.1063-1.1267-.8682-2.9853a1.7512,1.7512,0,0,0-2.1706-1.1925q-.03.0087-.0591.0183ZM18.4342,6a1.7857,1.7857,0,1,1-1.7857,1.7857A1.7857,1.7857,0,0,1,18.4342,6Z"/><path fill="#2c3e50" d="M16,3A13,13,0,1,1,3,16,13,13,0,0,1,16,3m0-1A14,14,0,1,0,30,16,14,14,0,0,0,16,2Z"/></svg>