<svg xmlns="http://www.w3.org/2000/svg" viewBox="0 0 32 32"><title>RGB_walk</title><path fill="#2c3e50" d="M12.22,9.0941a.8414.8414,0,0,0-.5361.4976l-2.16,5.1964a.8735.8735,0,1,0,1.6142.6682h0l2.01-4.8338,1.544-.5141-2.1389,5.5808a2.3845,2.3845,0,0,0,.2111,2.1038L7.73,28.2054a1.25,1.25,0,0,0,2.2514,1.0883l4.6573-9.6349,5.0726,9.6723a1.25,1.25,0,0,0,1.688.5266l.0136-.0072h0a1.25,1.25,0,0,0,.513-1.6808l-5.1617-9.8421,2.1369-5.575.4662,1.5986a.8206.8206,0,0,0,.4759.52l3.3212,1.7766a.8735.8735,0,1,0,.7128-1.595h0l-2.9485-1.5773-1.2154-4.179a2.4513,2.4513,0,0,0-3.0385-1.6693c-.0277.008-.0553.0166-.0827.0256ZM19.4075,2.001a2.5,2.5,0,1,1-2.5,2.5A2.5,2.5,0,0,1,19.4075,2.001Z"/></svg>