<svg xmlns="http://www.w3.org/2000/svg" height="666.667" width="666.667"><style><![CDATA[.B{fill:#ff8b7b}.C{fill:#d1e3ff}.D{fill:#197bdd}.E{fill:#407bff}.F{fill:#0f264c}.G{fill:#4ea4f9}.H{fill:#14365b}.I{fill:#ea7063}.J{fill:#0053cc}]]></style><defs><clipPath id="A"><path d="M0 500h500V0H0z"/></clipPath><clipPath id="B"><path d="M71.01 382.75H428.99V185.02H71.01z"/></clipPath><clipPath id="C"><path d="M0 500h500V0H0z"/></clipPath><clipPath id="D"><path d="M167.384 335.592h9.537V312.75h-9.537z"/></clipPath><clipPath ><path d="M0 500h500V0H0z"/></clipPath></defs><g transform="matrix(1.333333 0 0 -1.333333 0 666.66667)"><path d="M0 117.352l500 .25H0zm363.223-7.602h17.85v.25h-17.85zm28.67.125h43.57v.25h-43.57zm-147.196-4.39h64.97v.25h-64.97zm-16.974 0h11.217v.25h-11.217zm-132.945 4.64h42.002v.25H94.778zm47.555 0h29.82v.25h-29.82zM66.9 105.6h35.6v.25H66.9z" class="C"/><g clip-path="url(#A)"><g clip-path="url(#B)" opacity=".4"><path d="M183.916 304.32c73.695 19.604 121.01 127.136 212.54 52.228 79.654-65.19-2.797-148.69-77.84-164.482-65.77-13.84-243.787-14.848-247.462 69.064-3.835 87.57 71.113 32.1 112.763 43.2" fill="#d4e8ff"/></g></g><g clip-path="url(#C)"><path d="M443.89 83.762c0-6.254-86.807-11.323-193.89-11.323S56.112 77.508 56.112 83.762 142.918 95.085 250 95.085s193.89-5.07 193.89-11.323" fill="#f0f6ff"/><path d="M176.92 83.762h-9.537v251.83h9.537z" class="C"/><g clip-path="url(#D)" class="C"><path d="M176.92 312.75h-9.537v22.842h9.537z"/></g><path d="M201.535 319.023H142.77c-6.11 0-11.11 5-11.11 11.112v80.683c0 6.11 5 11.11 11.11 11.11h58.766c6.11 0 11.11-5 11.11-11.11v-80.683c0-6.112-5-11.112-11.11-11.112" class="C"/><path d="M142.77 323.178c-3.835 0-6.956 3.12-6.956 6.956v80.683c0 3.835 3.12 6.956 6.956 6.956h58.766c3.836 0 6.956-3.12 6.956-6.956v-80.683c0-3.835-3.12-6.956-6.956-6.956z" class="D"/><g fill="#fff"><path d="M155.4 356.623h2.215c.748 0 1.276.133 1.583.398s.46.623.46 1.07a1.24 1.24 0 0 1-.456 1.003c-.304.253-.836.38-1.597.38H155.4zm0 5.526h1.9c.678 0 1.15.117 1.416.35s.397.57.397 1.012c0 .4-.133.73-.397.96s-.728.345-1.387.345h-1.92zm-4.385 5.516h8.135c1.355 0 2.396-.335 3.123-1.008a3.26 3.26 0 0 0 1.089-2.493c0-.832-.26-1.545-.777-2.14-.346-.397-.85-.7-1.516-.94 1-.24 1.754-.66 2.23-1.25s.715-1.334.715-2.23c0-.73-.17-1.385-.5-1.967a3.73 3.73 0 0 0-1.391-1.381c-.364-.212-.914-.365-1.65-.46l-1.947-.192h-7.502zm23.915 0h4.337v-8.38c0-.83-.13-1.616-.4-2.354s-.665-1.383-1.22-1.935-1.133-.942-1.74-1.165c-.844-.314-1.86-.47-3.042-.47a19.07 19.07 0 0 0-2.239.143c-.8.097-1.486.286-2.03.57s-1.04.688-1.5 1.213-.76 1.063-.926 1.62c-.268.896-.403 1.688-.403 2.378v8.38h4.336v-8.578c0-.767.213-1.367.638-1.797s1.015-.647 1.77-.647 1.335.212 1.76.637.637 1.027.637 1.807zm6.455-9.41l4.135.26c.1-.672.272-1.184.548-1.535.447-.57 1.086-.854 1.918-.854.62 0 1.1.146 1.434.437s.504.628.504 1c0 .365-.16.692-.48.98s-1.062.56-2.226.815c-1.906.428-3.264.998-4.077 1.708-.82.7-1.228 1.614-1.228 2.714 0 .723.2 1.405.628 2.048s1.05 1.148 1.9 1.516 1.994.55 3.46.55c1.797 0 3.167-.334 4.1-1.002s1.504-1.73 1.683-3.2l-4.096-.24c-.1.633-.337 1.093-.686 1.38s-.83.432-1.444.432c-.506 0-.886-.108-1.142-.322s-.383-.475-.383-.78c0-.225.105-.426.316-.605.205-.185.7-.358 1.46-.518 1.9-.4 3.26-.824 4.082-1.243s1.42-.938 1.793-1.558.562-1.315.562-2.082c0-.902-.25-1.733-.748-2.494s-1.197-1.338-2.093-1.73-2.023-.6-3.385-.6c-2.392 0-4.05.46-4.97 1.382s-1.442 2.1-1.564 3.5m-37.616-17.998l4.135.258c.1-.67.272-1.183.547-1.535.447-.57 1.087-.853 1.92-.853.62 0 1.098.146 1.434.436s.504.63.504 1.012c0 .365-.16.692-.48.98s-1.062.56-2.226.816c-1.906.428-3.264.997-4.078 1.707s-1.227 1.615-1.227 2.715c0 .722.2 1.405.628 2.048s1.05 1.147 1.9 1.516 1.994.55 3.46.55c1.797 0 3.167-.334 4.1-1.002s1.505-1.73 1.684-3.2l-4.096-.24c-.1.633-.338 1.093-.686 1.38s-.83.432-1.444.432c-.506 0-.886-.108-1.142-.322s-.383-.475-.383-.78c0-.225.105-.426.316-.605.205-.186.7-.358 1.46-.518 1.9-.4 3.26-.824 4.082-1.243s1.42-.938 1.793-1.558.56-1.315.56-2.082c0-.902-.25-1.733-.748-2.494s-1.196-1.338-2.092-1.73-2.023-.6-3.386-.6c-2.4 0-4.048.46-4.97 1.382s-1.442 2.1-1.564 3.5m13.957 9.42h13.2v-3.473h-4.432v-10.6h-4.345v10.6h-4.433zm18.305-7.06c0-1.42.264-2.44.792-3.06s1.245-.93 2.153-.93c.934 0 1.656.303 2.168.9s.767 1.698.767 3.27c0 1.325-.267 2.292-.8 2.902s-1.26.916-2.174.916c-.876 0-1.58-.3-2.1-.93s-.796-1.647-.796-3.08m-4.346.02c0 2.296.64 4.084 1.92 5.363s3.06 1.918 5.343 1.918c2.34 0 4.144-.63 5.4-1.884s1.9-3.018 1.9-5.282c0-1.644-.276-3-.83-4.043s-1.353-1.87-2.398-2.456-2.35-.878-3.9-.878c-1.587 0-2.9.253-3.938.758s-1.882 1.305-2.528 2.398-.97 2.462-.97 4.106m21.25 1.047h1.065c.838 0 1.426.146 1.765.437a1.41 1.41 0 0 1 .509 1.118 1.56 1.56 0 0 1-.442 1.122c-.295.307-.847.46-1.66.46h-1.238zm-4.364 5.996h7.223c1.574 0 2.75-.373 3.536-1.122s1.174-1.813 1.174-3.194c0-1.42-.427-2.53-1.28-3.33s-2.157-1.2-3.9-1.2h-2.38v-5.218H188.6zm5.846 46.644a1.25 1.25 0 0 0-1.247-1.247h-4.675a1.26 1.26 0 0 0-1.257 1.247v4.675a1.26 1.26 0 0 0 1.257 1.246h4.675a1.25 1.25 0 0 0 1.247-1.246zm-8.758 0a1.25 1.25 0 0 0-1.247-1.247h-4.675a1.25 1.25 0 0 0-1.247 1.247v4.675a1.25 1.25 0 0 0 1.247 1.246h4.675a1.25 1.25 0 0 0 1.247-1.246zm-8.758 0a1.25 1.25 0 0 0-1.247-1.247H171a1.25 1.25 0 0 0-1.247 1.247v4.675a1.25 1.25 0 0 0 1.247 1.246h4.675a1.25 1.25 0 0 0 1.247-1.246zm-8.758 0a1.25 1.25 0 0 0-1.247-1.247h-4.675a1.25 1.25 0 0 0-1.247 1.247v4.675a1.25 1.25 0 0 0 1.247 1.246h4.675a1.25 1.25 0 0 0 1.247-1.246zm29.172 8.405H154.5a1.36 1.36 0 0 1-1.309-.967l-2.172-7.064c-.394-1.268-1.443-2.213-2.752-2.473l-1.35-.27a1.64 1.64 0 0 1-1.32-1.6v-7.065a1.36 1.36 0 0 1 1.371-1.361h7.44c0 3.345 2.72 6.068 6.067 6.068a6.08 6.08 0 0 0 6.077-6.068h18.223a6.08 6.08 0 0 0 6.078 6.068c3.345 0 6.067-2.723 6.067-6.068h.415a1.36 1.36 0 0 1 1.372 1.36v18.087a1.37 1.37 0 0 1-1.372 1.362m-36.86-17.12a3.71 3.71 0 0 1-3.699-3.698 3.71 3.71 0 0 1 3.699-3.709 3.71 3.71 0 0 1 3.708 3.709 3.71 3.71 0 0 1-3.708 3.698m30.378 0a3.71 3.71 0 0 1-3.709-3.698c0-2.047 1.663-3.7 3.7-3.7a3.71 3.71 0 0 1 3.699 3.709 3.71 3.71 0 0 1-3.699 3.698"/></g><g class="C"><path d="M379.354 204.908l-9.065-63.938H365l9.066 63.938zm-226.402 0l-9.065-63.938h-5.28l9.066 63.938zm192.563-58.122l-.825-5.816-4.453-57.208h-5.28l4.438 57.208.824 5.816zm-226.42 0l-.824-5.816-4.44-57.208h-5.277l4.438 57.208.824 5.816zm26.684 0l.825-5.816 4.453-57.208h5.28L151.9 140.97l-.825 5.816zm226.418 0l.824-5.816 4.44-57.208h5.277l-4.44 57.208-.825 5.816z"/></g><path d="M386.95 196.82H144.973l4.493 16.185h241.977z" class="D"/><path d="M381.426 196.82H139.448l4.493 16.185h241.977z" class="G"/><path d="M383.58 176.633H141.604l4.493 16.185h241.977z" class="D"/><path d="M378.056 176.633H136.078l4.494 16.185H382.55z" class="G"/><path d="M380.212 156.42H138.234l4.493 16.185h241.977z" class="D"/><g class="G"><path d="M374.686 156.42H132.7l4.493 16.185H379.18zM351.6 140.97H110.696v5.816H351.6z"/></g><path d="M384.71 140.97h-33.1v5.816h33.1z" class="D"/><path d="M202.4 81.356h7.228l.908 16.74h-7.228z" class="B"/><path d="M201.965 85.637l8.12.001a.59.59 0 0 0 .59-.494l1.096-6.425c.113-.666-.443-1.297-1.125-1.285l-7.772.215c-2.197 0-9.45-.23-12.485-.23-2.967 0-3.276 3-2.02 3.272 5.632 1.218 10.533 2.898 12.4 4.5a1.84 1.84 0 0 0 1.196.444" class="H"/><path d="M271.88 224.398c-2.532-5.363-5.17-10.635-7.907-15.886-2.748-5.242-5.562-10.452-8.564-15.623l-1.428-2.427-.438-.687c-.31-.5-.602-.83-.91-1.246-1.198-1.476-2.404-2.595-3.61-3.675-2.407-2.138-4.87-3.935-7.364-5.68-5.003-3.444-10.12-6.474-15.483-9.238l-2.96 4.55 13.243 11.3c2.125 1.908 4.215 3.854 6.05 5.803.903.97 1.748 1.976 2.344 2.836.106.192.29.43.343.57l.38.74.975 1.934 15.48 31.507z" class="B"/><path d="M274.904 229.637c2.102-6.467-11.224-25.51-11.224-25.51l-14.05 7.85s3.86 9.5 9.227 16.922c5.5 7.62 13.74 7.836 16.046.738" class="E"/><path d="M275.08 228.818c-2.766 1.343-6 .22-9.468-5.122-3.423-5.286-6.505-14.27-6.864-16.815l4.936-2.755s12.302 17.585 11.396 24.692" fill="#2b6ad8"/><g class="B"><path d="M223.455 174.635l-6.736-3.885 4.867-7.162s5.217 2.634 5.767 7.97z"/><path d="M212.427 161.95l5.517.55 3.642 1.088-4.867 7.162z"/></g><path d="M203.306 98.1h7.23l-.472-8.628h-7.23z" class="I"/><path d="M307.1 234.96l-.68-2.8c-.01-.03-.01-.05-.02-.08-1.58-6.77-2.64-13.55-3.34-20-2.1-19.32-1.06-35.7-1.47-39.98h-38.66c-6 40.65 3.66 62.47 3.66 62.47s3.23.88 7.33 1.52c1.24.2 2.56.37 3.9.5 4.36.4 11.5.24 16.43 0a81.38 81.38 0 0 0 3.519-.26c5-.5 9.34-1.37 9.34-1.37" class="E"/><path d="M306.4 232.23v-.06c-.01-.03-.01-.05-.02-.08-1.58-6.77-2.64-13.55-3.34-20-4.2 5.93-5.45 12.13-4.7 15.96.83 4.32 5.54 4.44 8.07 4.18" fill="#2b6ad8"/><path d="M297.75 236.33l-1.1-1.5c-.2-.3-5.23-7.05-15.8-8.95l-.94-.17-.87.4c-3.33 1.57-5.23 3.68-5.64 6.26-.23 1.43.06 2.7.5 3.72a56.55 56.55 0 0 0 3.89.49c4.36.4 11.5.24 16.43 0a81.31 81.31 0 0 0 3.52-.26" class="C"/><path d="M293.56 255.095c-1.3-5.288-2.846-14.977.672-18.505 0 0-4.4-6.048-13.9-7.757-7.166 3.375-2.534 7.756-2.534 7.756 5.97 1.408 6.043 5.783 5.228 9.892z" class="B"/><path d="M289.266 251.58l-6.234-5.095c.196-.972.337-1.958.356-2.917 2.27.325 5.49 2.798 5.853 5.158.18 1.175.19 2.306.025 2.854" class="I"/><path d="M277.596 271.36c-3.635-1.505-6.083-11.48-1.65-13.77s8.535 16.62 1.65 13.77" class="F"/><path d="M294.6 263.052c-.8-7.16-.92-11.373-4.727-15.048-5.725-5.528-14.394-2.25-15.733 4.898-1.205 6.433.32 17.06 7.478 19.91 7.05 2.807 13.793-2.6 12.982-9.76" class="B"/><path d="M289 278.722c3.923 2.47 9.908.03 8.7-3.368-1.935-5.45 3.05-.228 2.993-6.676-.037-4.2-4.757-14.19-7.75-13.923s-4.152 5.563-2.335 11.47c1.365 4.434-2.384 2.685-7.84 2.15-11.058-1.086-18.666 13.403-5.937 12.627 12.306-.75 10.96 5.958 10.96 5.958s4.426-7.24-2.563-7.27c-6.966-.03-4.356-6.08 3.77-.965" class="F"/><path d="M297.427 255.16c-1.1-1.646-2.835-2.67-4.405-3.01-2.362-.513-3.286 1.608-2.415 3.74.784 1.92 2.958 4.503 5.224 4.06 2.235-.437 2.855-2.91 1.596-4.79" class="B"/><path d="M295.743 273.22c.986.192 3.23.625 4.65 3.203 0 0 .184-5.677-4.65-3.203" class="F"/><path d="M262.92 172.11s-49.992 1.718-56.68-18.165c-7.324-21.772-5.802-62.11-5.802-62.11h12.53s4.83 28.785 8.145 43.39c3.44 15.158 52.26 8.266 58.462 13.8 4.95 4.422 7.45 11.897 8.108 23.076l-24.76.001" fill="#0a1b35"/><path d="M213.807 91.525l-14.21.001-.387 4.5 15.52-.397z" class="E"/><path d="M268.98 81.356h-7.228l-5.283 16.74h7.228z" class="B"/><path d="M260.4 85.637l8.12.001c.295 0 .54-.206.6-.494l1.096-6.425a1.13 1.13 0 0 0-1.125-1.285l-7.773.215c-2.196 0-9.45-.23-12.485-.23-2.967 0-3.275 3-2.02 3.272 5.632 1.218 10.533 2.898 12.4 4.5a1.84 1.84 0 0 0 1.197.444" class="H"/><path d="M263.7 98.1h-7.23l2.726-8.628h7.23z" class="I"/><g class="J"><path d="M256.957 85.857c-.085 0-.158-.013-.216-.04-.05-.023-.107-.067-.122-.2-.03-.265.03-.462.2-.603.37-.326 1.297-.372 2.524-.132-.785.465-1.832.975-2.376.975m1-1.495c-.56 0-1.076.096-1.394.377-.25.222-.355.532-.31.92a.58.58 0 0 0 .332.492c.833.397 3.08-1.03 3.334-1.195.062-.04.095-.114.082-.187s-.067-.13-.14-.148c-.508-.12-1.235-.258-1.904-.258"/><path d="M258.5 87.546a.64.64 0 0 1-.075-.004c-.23-.028-.25-.133-.26-.183-.093-.473.744-1.634 1.437-2.193-.063.697-.256 1.828-.726 2.234a.56.56 0 0 1-.376.146m1.31-2.93c-.032 0-.062.008-.1.024-.712.398-2.076 1.974-1.915 2.79.03.156.146.426.576.477.273.038.522-.044.737-.228.808-.697.873-2.785.876-2.874.002-.067-.032-.128-.09-.163a.18.18 0 0 0-.095-.027"/></g><path d="M276.634 172.108s-49.072-2.515-45.638-23.21c3.76-22.66 24.92-57.066 24.92-57.066h12.63l-12.602 47.5c-2.752 9.97 31.327 4.155 37.53 9.7 4.948 4.422 7.45 11.897 8.106 23.076z" class="H"/><path d="M269.3 91.525l-14.21.001-2.757 4.5h16.877z" class="E"/><g class="F"><path d="M283.637 261.05c-.03-.583-.363-1.056-.744-1.056s-.666.473-.636 1.056.364 1.056.745 1.056.665-.473.635-1.056m-6.59 0c-.03-.583-.364-1.056-.745-1.056s-.665.473-.636 1.056.364 1.056.745 1.056.665-.473.636-1.056"/></g><path d="M279.128 260.76s-1.5-3.363-3.043-4.986c.98-.963 2.758-.523 2.758-.523z" fill="#ff5652"/><g class="F"><path d="M280.467 253.642a.17.17 0 0 0-.17.17c0 .093.076.172.17.172 2.564 0 3.854 1.792 3.867 1.8a.171.171 0 1 0 .279-.197c-.055-.08-1.406-1.956-4.146-1.956m5.283 9.545c-.107 0-.213.05-.28.145-.85 1.205-2.1 1.13-2.12 1.134-.206-.024-.353.13-.367.318s.13.352.318.365c.073.006 1.658.098 2.73-1.422.1-.155.072-.37-.083-.478a.34.34 0 0 0-.197-.062m-11.453.14a.34.34 0 0 0-.162.041c-.166.1-.23.297-.14.463.9 1.693 2.478 1.907 2.544 1.915a.33.33 0 0 0 .382-.297c.022-.197-.1-.358-.296-.382-.052-.007-1.3-.2-2.026-1.56-.062-.115-.18-.18-.302-.18"/></g><path d="M305.1 232.232l3.7-.884 3.55-1.02 6.956-2.493 6.78-3.105 3.308-1.815 1.622-1 .808-.507a13.13 13.13 0 0 0 .764-.523c.304-.233.603-.498.876-.776a8.12 8.12 0 0 0 2.044-3.753c.287-1.2.296-2.23.24-3.14-.133-1.81-.545-3.23-.987-4.574-.926-2.64-2.11-4.886-3.362-7.05-2.536-4.304-5.414-8.12-8.646-11.808l-4.44 3.12c2.065 4.043 4.1 8.246 5.753 12.324.82 2.036 1.537 4.1 1.94 5.956.2.907.302 1.792.25 2.328-.018.262-.09.413-.1.348-.015-.04.08-.41.367-.713.063-.075.137-.148.21-.205.035-.05.234-.157.025-.05l-.72.364c-.483.24-.95.494-1.443.72l-2.975 1.34c-2.004.865-4.07 1.648-6.16 2.387-2.092.726-4.208 1.426-6.343 2.06l-3.206.93-3.12.823z" class="B"/><path d="M299.992 234.33c5.28 4.377 24.524-5.954 24.524-5.954l-11.34-14.21s-1.96.452-9.976 4.058c-8.4 3.777-8.874 11.41-3.21 16.105" class="E"/><g class="J"><path d="M198.522 85.857c-.085 0-.158-.013-.216-.04-.05-.023-.107-.067-.122-.2-.03-.266.03-.462.2-.603.368-.326 1.296-.372 2.524-.132-.785.465-1.832.975-2.376.975m1-1.495c-.558 0-1.076.096-1.394.377-.25.222-.355.532-.31.92a.58.58 0 0 0 .332.492c.83.397 3.08-1.032 3.334-1.195.062-.04.095-.114.082-.187s-.067-.13-.14-.148c-.508-.12-1.235-.258-1.904-.258"/><path d="M200.075 87.546c-.025 0-.05-.001-.076-.004-.23-.028-.25-.133-.26-.183-.093-.473.743-1.634 1.436-2.193-.062.697-.256 1.828-.726 2.234-.114.098-.237.146-.375.146m1.308-2.93c-.03 0-.062.008-.1.024-.712.398-2.075 1.974-1.915 2.79.03.156.147.426.576.477.278.038.522-.044.737-.228.81-.697.874-2.785.876-2.874.002-.067-.032-.128-.09-.163a.18.18 0 0 0-.095-.027"/></g><g class="B"><path d="M317.555 192.702l-4.378-5.82 9.033-.623s2.953 5.87-.174 7.19z"/><path d="M313.688 178.733l7.48-.15 1.043 7.674-9.033.623z"/></g><path d="M278.53 219.317c-.077 0-.156-.004-.235-.01-2.444-.22-4.837-3.872-5.227-7.97-.248-2.604.347-4.973 1.553-6.184.6-.603 1.288-.873 2.067-.804 2.444.22 4.837 3.872 5.227 7.972.248 2.604-.347 4.974-1.552 6.184-.54.54-1.154.814-1.833.814m-2.076-15.98c-.943 0-1.816.38-2.542 1.108-1.43 1.437-2.12 4.05-1.84 6.983.447 4.705 3.142 8.604 6.133 8.874 1.058.095 2.058-.282 2.867-1.093 1.43-1.438 2.118-4.048 1.84-6.984-.447-4.705-3.142-8.603-6.133-8.874-.108-.01-.217-.014-.324-.014" class="C"/><path d="M195.17 167.33l-1.42-20.54h-10.33L182 167.33z" class="J"/><g class="C"><path d="M196.292 166.667h-15.417V168h15.417z"/><path d="M195.347 168H181.82v1.333h13.528zm-7.352-4.74v-12.4h-4.98l-.86 12.4z"/></g></g></g></svg>